#Comment line ignore any data following # character 
#Hierarchical Translation and Rotation (.htr) file 
[Header]	
#Header keywords are followed by a single value 
FileType HTR		#Single word string
DataType HTRS		#Translation followed by rotation and scale data
FileVersion 1		#integer
NumSegments 25		#integer
NumFrames 4		#integer
DataFrameRate 30		#integer, data frame rate in this file
EulerRotationOrder ZYX
CalibrationUnits mm
RotationUnits Degrees
GlobalAxisofGravity Y
BoneLengthAxis Y
ScaleFactor 1.00
[SegmentNames&Hierarchy]
#CHILD	PARENT
BN_Tick_Root GLOBAL
BN_Torso BN_Tick_Root
BN_L_Leg_Front01 BN_Torso
BN_L_Leg_Rear01 BN_Torso
BN_MetalTop BN_Torso
BN_Neck BN_Torso
BN_R_Leg_Front01 BN_Torso
BN_R_Leg_Rear01 BN_Torso
BN_Sack BN_Torso
BN_L_Leg_Front02 BN_L_Leg_Front01
BN_L_Leg_Front03 BN_L_Leg_Front02
BN_L_Leg_Rear02 BN_L_Leg_Rear01
BN_L_Leg_Rear03 BN_L_Leg_Rear02
BN_Head BN_Neck
BN_Needle BN_Head
BN_R_Leg_Front02 BN_R_Leg_Front01
BN_R_Leg_Front03 BN_R_Leg_Front02
BN_R_Leg_Rear02 BN_R_Leg_Rear01
BN_R_Leg_Rear03 BN_R_Leg_Rear02
BN_SackDef01 BN_Sack
BN_SackDef02 BN_Sack
BN_SackDef03 BN_Sack
BN_SackDef04 BN_Sack
BN_SackDef05 BN_Sack
BN_SackDef06 BN_Sack
[BasePosition]
#SegmentName Tx, Ty, Tz, Rx, Ry, Rz, BoneLength
BN_Tick_Root 0.000000 0.000000 0.000000 -90.000000 0.000000 0.000000 10.000000 
BN_Torso 0.000000 0.000000 0.000000 0.000000 0.000000 0.000000 10.000000 
BN_L_Leg_Front01 0.000000 0.000000 0.000000 0.000000 0.000000 0.000000 10.000000 
BN_L_Leg_Rear01 0.000000 0.000000 0.000000 0.000000 0.000000 0.000000 10.000000 
BN_MetalTop 0.000000 0.000000 0.000000 0.000000 0.000000 0.000000 10.000000 
BN_Neck 0.000000 0.000000 0.000000 0.000000 0.000000 0.000000 10.000000 
BN_R_Leg_Front01 0.000000 0.000000 0.000000 0.000000 0.000000 0.000000 10.000000 
BN_R_Leg_Rear01 0.000000 0.000000 0.000000 0.000000 0.000000 0.000000 10.000000 
BN_Sack 0.000000 0.000000 0.000000 0.000000 0.000000 0.000000 10.000000 
BN_L_Leg_Front02 0.000000 0.000000 0.000000 0.000000 0.000000 0.000000 10.000000 
BN_L_Leg_Front03 0.000000 0.000000 0.000000 0.000000 0.000000 0.000000 10.000000 
BN_L_Leg_Rear02 0.000000 0.000000 0.000000 0.000000 0.000000 0.000000 10.000000 
BN_L_Leg_Rear03 0.000000 0.000000 0.000000 0.000000 0.000000 0.000000 10.000000 
BN_Head 0.000000 0.000000 0.000000 0.000000 0.000000 0.000000 10.000000 
BN_Needle 0.000000 0.000000 0.000000 0.000000 0.000000 0.000000 10.000000 
BN_R_Leg_Front02 0.000000 0.000000 0.000000 0.000000 0.000000 0.000000 10.000000 
BN_R_Leg_Front03 0.000000 0.000000 0.000000 0.000000 0.000000 0.000000 10.000000 
BN_R_Leg_Rear02 0.000000 0.000000 0.000000 0.000000 0.000000 0.000000 10.000000 
BN_R_Leg_Rear03 0.000000 0.000000 0.000000 0.000000 0.000000 0.000000 10.000000 
BN_SackDef01 0.000000 0.000000 0.000000 0.000000 0.000000 0.000000 10.000000 
BN_SackDef02 0.000000 0.000000 0.000000 0.000000 0.000000 0.000000 10.000000 
BN_SackDef03 0.000000 0.000000 0.000000 0.000000 0.000000 0.000000 10.000000 
BN_SackDef04 0.000000 0.000000 0.000000 0.000000 0.000000 0.000000 10.000000 
BN_SackDef05 0.000000 0.000000 0.000000 0.000000 0.000000 0.000000 10.000000 
BN_SackDef06 0.000000 0.000000 0.000000 0.000000 0.000000 0.000000 10.000000 
#Beginning of Data. Separated by tabs
#Fr	Tx	Ty	Tz	Rx	Ry	Rz	SF
[BN_Tick_Root]
46 0.000000 -0.000099 0.000000 0.000000 0.000000 -0.000020 0.000099
47 0.000000 -0.000101 0.000000 0.000000 0.000000 -0.000020 0.000101
48 0.000000 -0.000103 0.000000 0.000000 0.000000 -0.000020 0.000103
49 0.000000 -0.000105 0.000000 0.000000 0.000000 -0.000020 0.000105
[BN_Torso]
46 79.706581 127.238037 304.629730 20.901438 0.942753 8.471065 339.620270
47 79.726463 127.067520 304.842773 21.059994 1.997223 7.889851 339.752228
48 79.746353 126.897011 305.055786 21.131351 2.505063 7.573936 339.884369
49 79.766228 126.726494 305.268799 21.037804 1.868586 7.966004 340.016602
[BN_L_Leg_Front01]
46 -68.477791 10.734189 -26.804373 40.316833 65.871956 -121.101402 74.316254
47 -68.477791 10.734189 -26.804373 42.524292 66.024300 -117.924103 74.316254
48 -68.477791 10.734189 -26.804373 43.605713 66.076820 -116.354706 74.316254
49 -68.477791 10.734189 -26.804373 42.376938 66.031876 -118.307510 74.316254
[BN_L_Leg_Rear01]
46 -72.133743 -73.994843 -18.268616 87.028069 45.152248 -126.311096 104.939293
47 -72.133743 -73.994843 -18.268616 87.981895 45.577637 -124.324577 104.939293
48 -72.133743 -73.994843 -18.268616 88.441246 45.788193 -123.325996 104.939293
49 -72.133743 -73.994843 -18.268616 87.908905 45.633438 -124.575836 104.939293
[BN_MetalTop]
46 0.000008 13.737477 26.403606 76.632248 -32.615986 -92.817238 29.763546
47 0.000008 13.737477 26.403606 76.728142 -32.519207 -92.473625 29.763546
48 0.000008 13.737477 26.403606 77.188736 -32.766602 -93.494843 29.763546
49 0.000008 13.737477 26.403606 78.262360 -33.267578 -95.767693 29.763546
[BN_Neck]
46 0.000014 95.233284 10.002091 -89.999672 -65.297531 89.999657 95.757088
47 0.000014 95.233284 10.002091 -89.999672 -65.297531 89.999657 95.757088
48 0.000014 95.233284 10.002091 -89.999672 -65.297531 89.999657 95.757088
49 0.000014 95.233284 10.002091 -89.999672 -65.297531 89.999657 95.757088
[BN_R_Leg_Front01]
46 68.477768 10.734107 -26.804314 -32.943016 62.331856 -66.001343 74.316193
47 68.477768 10.734107 -26.804314 -31.486227 61.886547 -63.484531 74.316193
48 68.477768 10.734107 -26.804314 -30.879166 61.671158 -62.266903 74.316193
49 68.477768 10.734107 -26.804314 -31.795593 61.958157 -63.788803 74.316193
[BN_R_Leg_Rear01]
46 72.133751 -73.994873 -18.268644 -67.600067 37.077431 -78.330917 104.939331
47 72.133751 -73.994873 -18.268644 -66.858566 36.675842 -76.649620 104.939331
48 72.133751 -73.994873 -18.268644 -66.519798 36.509590 -75.807182 104.939331
49 72.133751 -73.994873 -18.268644 -66.927322 36.831173 -76.849121 104.939331
[BN_Sack]
46 -0.000000 -78.024918 33.657791 93.546227 -1.910357 -97.797821 84.974907
47 -0.000000 -78.024918 33.657791 93.552383 -2.239487 -97.821358 84.974907
48 -0.000000 -78.024918 33.657791 93.550949 -1.138939 -97.806030 84.974907
49 -0.000000 -78.024918 33.657791 93.544037 0.898903 -97.735672 84.974907
[BN_L_Leg_Front02]
46 142.805023 -0.000015 -0.000104 0.154754 0.404985 -103.442879 142.805023
47 142.805023 -0.000015 -0.000104 0.158345 0.402805 -102.973503 142.805023
48 142.805023 -0.000015 -0.000104 0.156477 0.398462 -102.625473 142.805023
49 142.805023 -0.000015 -0.000104 0.159190 0.402472 -102.733139 142.805023
[BN_L_Leg_Front03]
46 124.143021 -0.000045 0.000007 0.351711 -0.415240 112.344490 124.143021
47 124.143021 -0.000045 0.000007 0.356489 -0.417628 111.789864 124.143021
48 124.143021 -0.000045 0.000007 0.353731 -0.419277 111.425133 124.143021
49 124.143021 -0.000045 0.000007 0.353315 -0.419628 111.538811 124.143021
[BN_L_Leg_Rear02]
46 139.939041 0.000075 -0.000022 0.132246 -0.206340 80.262703 139.939041
47 139.939041 0.000075 -0.000022 0.132587 -0.206121 80.073090 139.939041
48 139.939041 0.000075 -0.000022 0.132928 -0.205901 79.883461 139.939041
49 139.939041 0.000075 -0.000022 0.132668 -0.206068 80.027771 139.939041
[BN_L_Leg_Rear03]
46 142.839615 0.000179 -0.000060 0.000109 -0.002345 -95.346214 142.839615
47 142.839615 0.000179 -0.000060 0.000104 -0.002345 -95.091759 142.839615
48 142.839615 0.000179 -0.000060 0.000099 -0.002345 -94.837296 142.839615
49 142.839615 0.000179 -0.000060 0.000103 -0.002345 -95.025078 142.839615
[BN_Head]
46 57.062447 -0.000030 0.000000 10.673925 19.665989 65.121704 57.062447
47 57.062447 -0.000030 0.000000 9.892247 18.738195 65.024803 57.062447
48 57.062447 -0.000030 0.000000 9.522274 18.260260 64.985886 57.062447
49 57.062447 -0.000030 0.000000 9.655344 18.863289 65.032303 57.062447
[BN_Needle]
46 43.342979 326.398193 -0.000107 0.000003 0.000030 87.896805 329.263397
47 43.342979 326.398193 -0.000108 0.000003 0.000030 87.896805 329.263397
48 43.342979 326.398193 -0.000108 0.000003 0.000030 87.896805 329.263397
49 43.342979 326.398193 -0.000108 0.000003 0.000030 87.896805 329.263397
[BN_R_Leg_Front02]
46 142.804947 -0.000060 0.000060 -0.140198 0.455684 107.858627 142.804947
47 142.804947 -0.000060 0.000060 -0.140346 0.458083 108.185966 142.804947
48 142.804947 -0.000060 0.000060 -0.140077 0.458165 108.253113 142.804947
49 142.804947 -0.000060 0.000060 -0.141689 0.457669 107.849754 142.804947
[BN_R_Leg_Front03]
46 124.143005 -0.000060 -0.000156 -0.352165 -0.400790 -116.777916 124.143005
47 124.143005 -0.000060 -0.000156 -0.353144 -0.400487 -117.100235 124.143005
48 124.143005 -0.000060 -0.000156 -0.352901 -0.400701 -117.169769 124.143005
49 124.143005 -0.000060 -0.000156 -0.354298 -0.399466 -116.769478 124.143005
[BN_R_Leg_Rear02]
46 139.939011 -0.000149 0.000015 -0.138486 -0.199499 -78.152107 139.939011
47 139.939011 -0.000149 0.000015 -0.132068 -0.195266 -78.537537 139.939011
48 139.939011 -0.000149 0.000015 -0.131752 -0.195479 -78.722908 139.939011
49 139.939011 -0.000149 0.000015 -0.136835 -0.205194 -78.403442 139.939011
[BN_R_Leg_Rear03]
46 142.839417 0.000075 0.000119 0.002347 -0.000051 92.485313 142.839417
47 142.839417 0.000075 0.000119 0.002346 -0.000062 93.012543 142.839417
48 142.839417 0.000075 0.000119 0.002346 -0.000067 93.264519 142.839417
49 142.839417 0.000075 0.000119 0.002347 -0.000058 92.828323 142.839417
[BN_SackDef01]
46 249.782318 -3.760709 42.949490 -128.408218 -44.374973 -11.740845 253.475845
47 249.782318 -3.760710 42.949490 -128.408218 -44.374973 -11.740845 253.475845
48 249.782318 -3.760712 42.949490 -128.408218 -44.374973 -11.740845 253.475845
49 249.782318 -3.760713 42.949490 -128.408218 -44.374973 -11.740845 253.475845
[BN_SackDef02]
46 138.789825 -62.131645 45.674438 32.077126 -27.375721 -88.781525 158.773773
47 138.789825 -62.131645 45.674442 32.077126 -27.375721 -88.781525 158.773773
48 138.789825 -62.131649 45.674442 32.077126 -27.375721 -88.781525 158.773773
49 138.789825 -62.131649 45.674442 32.077126 -27.375721 -88.781525 158.773773
[BN_SackDef03]
46 249.782318 -3.760626 -42.949623 18.144459 44.375008 -11.740894 253.475876
47 249.782318 -3.760626 -42.949623 18.144459 44.375008 -11.740894 253.475876
48 249.782318 -3.760626 -42.949623 18.144459 44.375008 -11.740894 253.475876
49 249.782318 -3.760625 -42.949623 18.144459 44.375008 -11.740894 253.475876
[BN_SackDef04]
46 138.789810 -62.131538 -45.674404 146.059982 27.375723 -88.781555 158.773712
47 138.789810 -62.131538 -45.674404 146.059982 27.375723 -88.781555 158.773712
48 138.789810 -62.131538 -45.674404 146.059982 27.375723 -88.781555 158.773712
49 138.789810 -62.131535 -45.674404 146.059982 27.375723 -88.781555 158.773712
[BN_SackDef05]
46 118.790184 46.167183 -63.831203 0.155741 51.314110 90.605110 142.537506
47 118.790184 46.167183 -63.831203 0.155741 51.314110 90.605110 142.537506
48 118.790184 46.167183 -63.831203 0.155741 51.314110 90.605110 142.537506
49 118.790184 46.167183 -63.831203 0.155741 51.314110 90.605110 142.537506
[BN_SackDef06]
46 118.790215 46.167229 63.831181 152.058487 -51.314072 90.605019 142.537537
47 118.790215 46.167229 63.831181 152.058487 -51.314072 90.605019 142.537537
48 118.790215 46.167225 63.831181 152.058487 -51.314072 90.605019 142.537537
49 118.790215 46.167225 63.831181 152.058487 -51.314072 90.605019 142.537537
